<svg xmlns="http://www.w3.org/2000/svg" width="1600" height="900" viewBox="0 0 1600 900">
  <defs><linearGradient id="sky" x1="0" y1="0" x2="1" y2="1"><stop stop-color="#03101f"/><stop offset=".55" stop-color="#06182a"/><stop offset="1" stop-color="#0b2d4c"/></linearGradient><radialGradient id="glow" cx="75%" cy="10%" r="45%"><stop stop-color="#d8a84e" stop-opacity=".25"/><stop offset="1" stop-color="#d8a84e" stop-opacity="0"/></radialGradient></defs>
  <rect width="1600" height="900" fill="url(#sky)"/><rect width="1600" height="900" fill="url(#glow)"/>
  <g fill="#071c30"><rect x="20" y="310" width="70" height="590"/><rect x="120" y="240" width="90" height="660"/><rect x="250" y="360" width="75" height="540"/><rect x="370" y="190" width="80" height="710"/><rect x="500" y="285" width="85" height="615"/><rect x="640" y="230" width="80" height="670"/><rect x="760" y="330" width="90" height="570"/><rect x="900" y="180" width="90" height="720"/><rect x="1040" y="270" width="90" height="630"/><rect x="1180" y="220" width="90" height="680"/><rect x="1320" y="310" width="85" height="590"/><rect x="1450" y="200" width="90" height="700"/></g>
  <g fill="#0d2740" opacity=".9"><rect x="92" y="390" width="40" height="510"/><rect x="330" y="290" width="38" height="610"/><rect x="590" y="380" width="48" height="520"/><rect x="855" y="260" width="42" height="640"/><rect x="995" y="350" width="42" height="550"/><rect x="1275" y="330" width="38" height="570"/></g>
  <g fill="#d8a84e" opacity=".8"><rect x="142" y="275" width="6" height="11"/><rect x="174" y="310" width="6" height="11"/><rect x="392" y="225" width="6" height="11"/><rect x="534" y="324" width="6" height="11"/><rect x="665" y="267" width="6" height="11"/><rect x="926" y="220" width="6" height="11"/><rect x="1212" y="255" width="6" height="11"/><rect x="1488" y="238" width="6" height="11"/></g>
  <g fill="#4d8cc7" opacity=".65"><rect x="52" y="350" width="6" height="11"/><rect x="278" y="410" width="6" height="11"/><rect x="410" y="285" width="6" height="11"/><rect x="798" y="372" width="6" height="11"/><rect x="1078" y="318" width="6" height="11"/><rect x="1355" y="355" width="6" height="11"/></g>
  <path d="M0 660 C280 610 420 720 720 650 S1240 610 1600 560" fill="none" stroke="#d8a84e" stroke-opacity=".18"/><rect width="1600" height="900" fill="#06182a" opacity=".24"/>
</svg>
